<?xml version="1.0" standalone="no"?>
<svg xmlns:xlink="http://www.w3.org/1999/xlink" id="wave" style="transform:rotate(0deg); transition: 0.3s" viewBox="0 0 1440 490" version="1.1" xmlns="http://www.w3.org/2000/svg"><defs><linearGradient id="sw-gradient-0" x1="0" x2="0" y1="1" y2="0"><stop stop-color="rgba(57.24, 50.253, 48.01, 1)" offset="0%"/><stop stop-color="rgba(184.74, 184.74, 184.74, 1)" offset="100%"/></linearGradient></defs><path style="transform:translate(0, 0px); opacity:1" fill="url(#sw-gradient-0)" d="M0,147L26.7,179.7C53.3,212,107,278,160,285.8C213.3,294,267,245,320,220.5C373.3,196,427,196,480,179.7C533.3,163,587,131,640,106.2C693.3,82,747,65,800,57.2C853.3,49,907,49,960,81.7C1013.3,114,1067,180,1120,228.7C1173.3,278,1227,310,1280,318.5C1333.3,327,1387,310,1440,277.7C1493.3,245,1547,196,1600,179.7C1653.3,163,1707,180,1760,171.5C1813.3,163,1867,131,1920,155.2C1973.3,180,2027,261,2080,277.7C2133.3,294,2187,245,2240,228.7C2293.3,212,2347,229,2400,236.8C2453.3,245,2507,245,2560,277.7C2613.3,310,2667,376,2720,351.2C2773.3,327,2827,212,2880,204.2C2933.3,196,2987,294,3040,326.7C3093.3,359,3147,327,3200,326.7C3253.3,327,3307,359,3360,318.5C3413.3,278,3467,163,3520,138.8C3573.3,114,3627,180,3680,187.8C3733.3,196,3787,147,3813,122.5L3840,98L3840,490L3813.3,490C3786.7,490,3733,490,3680,490C3626.7,490,3573,490,3520,490C3466.7,490,3413,490,3360,490C3306.7,490,3253,490,3200,490C3146.7,490,3093,490,3040,490C2986.7,490,2933,490,2880,490C2826.7,490,2773,490,2720,490C2666.7,490,2613,490,2560,490C2506.7,490,2453,490,2400,490C2346.7,490,2293,490,2240,490C2186.7,490,2133,490,2080,490C2026.7,490,1973,490,1920,490C1866.7,490,1813,490,1760,490C1706.7,490,1653,490,1600,490C1546.7,490,1493,490,1440,490C1386.7,490,1333,490,1280,490C1226.7,490,1173,490,1120,490C1066.7,490,1013,490,960,490C906.7,490,853,490,800,490C746.7,490,693,490,640,490C586.7,490,533,490,480,490C426.7,490,373,490,320,490C266.7,490,213,490,160,490C106.7,490,53,490,27,490L0,490Z"/><defs><linearGradient id="sw-gradient-1" x1="0" x2="0" y1="1" y2="0"><stop stop-color="rgba(48.133, 28.066, 21.621, 1)" offset="0%"/><stop stop-color="rgba(54.963, 52.879, 48.272, 1)" offset="100%"/></linearGradient></defs><path style="transform:translate(0, 50px); opacity:0.9" fill="url(#sw-gradient-1)" d="M0,196L26.7,187.8C53.3,180,107,163,160,163.3C213.3,163,267,180,320,163.3C373.3,147,427,98,480,130.7C533.3,163,587,278,640,334.8C693.3,392,747,392,800,359.3C853.3,327,907,261,960,269.5C1013.3,278,1067,359,1120,326.7C1173.3,294,1227,147,1280,73.5C1333.3,0,1387,0,1440,40.8C1493.3,82,1547,163,1600,204.2C1653.3,245,1707,245,1760,253.2C1813.3,261,1867,278,1920,269.5C1973.3,261,2027,229,2080,220.5C2133.3,212,2187,229,2240,269.5C2293.3,310,2347,376,2400,408.3C2453.3,441,2507,441,2560,400.2C2613.3,359,2667,278,2720,261.3C2773.3,245,2827,294,2880,261.3C2933.3,229,2987,114,3040,65.3C3093.3,16,3147,33,3200,49C3253.3,65,3307,82,3360,130.7C3413.3,180,3467,261,3520,302.2C3573.3,343,3627,343,3680,326.7C3733.3,310,3787,278,3813,261.3L3840,245L3840,490L3813.3,490C3786.7,490,3733,490,3680,490C3626.7,490,3573,490,3520,490C3466.7,490,3413,490,3360,490C3306.7,490,3253,490,3200,490C3146.7,490,3093,490,3040,490C2986.7,490,2933,490,2880,490C2826.7,490,2773,490,2720,490C2666.7,490,2613,490,2560,490C2506.7,490,2453,490,2400,490C2346.7,490,2293,490,2240,490C2186.7,490,2133,490,2080,490C2026.7,490,1973,490,1920,490C1866.7,490,1813,490,1760,490C1706.7,490,1653,490,1600,490C1546.7,490,1493,490,1440,490C1386.7,490,1333,490,1280,490C1226.7,490,1173,490,1120,490C1066.7,490,1013,490,960,490C906.7,490,853,490,800,490C746.7,490,693,490,640,490C586.7,490,533,490,480,490C426.7,490,373,490,320,490C266.7,490,213,490,160,490C106.7,490,53,490,27,490L0,490Z"/><defs><linearGradient id="sw-gradient-2" x1="0" x2="0" y1="1" y2="0"><stop stop-color="rgba(0.32, 0.32, 0.32, 1)" offset="0%"/><stop stop-color="rgba(214.338, 211.865, 206.397, 1)" offset="100%"/></linearGradient></defs><path style="transform:translate(0, 100px); opacity:0.8" fill="url(#sw-gradient-2)" d="M0,294L26.7,285.8C53.3,278,107,261,160,269.5C213.3,278,267,310,320,343C373.3,376,427,408,480,367.5C533.3,327,587,212,640,196C693.3,180,747,261,800,285.8C853.3,310,907,278,960,236.8C1013.3,196,1067,147,1120,155.2C1173.3,163,1227,229,1280,277.7C1333.3,327,1387,359,1440,367.5C1493.3,376,1547,359,1600,294C1653.3,229,1707,114,1760,130.7C1813.3,147,1867,294,1920,334.8C1973.3,376,2027,310,2080,253.2C2133.3,196,2187,147,2240,155.2C2293.3,163,2347,229,2400,228.7C2453.3,229,2507,163,2560,147C2613.3,131,2667,163,2720,147C2773.3,131,2827,65,2880,89.8C2933.3,114,2987,229,3040,302.2C3093.3,376,3147,408,3200,416.5C3253.3,425,3307,408,3360,343C3413.3,278,3467,163,3520,147C3573.3,131,3627,212,3680,236.8C3733.3,261,3787,229,3813,212.3L3840,196L3840,490L3813.3,490C3786.7,490,3733,490,3680,490C3626.7,490,3573,490,3520,490C3466.7,490,3413,490,3360,490C3306.7,490,3253,490,3200,490C3146.7,490,3093,490,3040,490C2986.7,490,2933,490,2880,490C2826.7,490,2773,490,2720,490C2666.7,490,2613,490,2560,490C2506.7,490,2453,490,2400,490C2346.7,490,2293,490,2240,490C2186.7,490,2133,490,2080,490C2026.7,490,1973,490,1920,490C1866.7,490,1813,490,1760,490C1706.7,490,1653,490,1600,490C1546.7,490,1493,490,1440,490C1386.7,490,1333,490,1280,490C1226.7,490,1173,490,1120,490C1066.7,490,1013,490,960,490C906.7,490,853,490,800,490C746.7,490,693,490,640,490C586.7,490,533,490,480,490C426.7,490,373,490,320,490C266.7,490,213,490,160,490C106.7,490,53,490,27,490L0,490Z"/></svg>